<?xml version="1.0" standalone="no"?>
<!DOCTYPE svg PUBLIC "-//W3C//DTD SVG 20010904//EN"
 "http://www.w3.org/TR/2001/REC-SVG-20010904/DTD/svg10.dtd">
<svg version="1.0" xmlns="http://www.w3.org/2000/svg"
 width="298.000000pt" height="298.000000pt" viewBox="0 0 298.000000 298.000000"
 preserveAspectRatio="xMidYMid meet">
<metadata>
Created by potrace 1.14, written by Peter Selinger 2001-2017
</metadata>
<g transform="translate(0.000000,298.000000) scale(0.100000,-0.100000)"
fill="#000000" stroke="none">
<path d="M1409 2959 c-35 -35 -20 -109 22 -109 16 0 17 -23 17 -321 l0 -321
-25 -24 c-24 -24 -25 -33 -13 -101 0 -1 13 -9 29 -18 l29 -15 -3 -102 c-2 -57
-5 -211 -6 -343 -1 -132 -5 -246 -7 -252 -3 -8 -24 -13 -56 -13 l-52 0 -20
130 c-17 112 -18 134 -6 151 11 16 10 39 -8 157 -22 140 -27 174 -35 227 -14
100 -47 305 -54 330 -5 20 -14 31 -28 33 -18 3 -23 14 -33 75 -6 40 -13 82
-15 94 -3 12 -1 25 5 28 11 7 13 45 4 69 -6 16 -48 21 -78 10 -22 -9 -20 -50
4 -74 13 -13 23 -44 30 -92 6 -40 13 -83 16 -95 3 -16 0 -23 -11 -23 -27 0
-28 10 40 -425 3 -16 14 -95 25 -175 17 -117 25 -148 41 -162 15 -12 24 -41
34 -110 8 -51 17 -105 20 -120 l5 -28 -125 0 c-117 0 -125 -1 -139 -22 -26
-37 -20 -63 16 -73 21 -7 43 -26 63 -53 25 -37 30 -55 33 -115 3 -69 1 -77
-43 -167 -88 -177 -105 -287 -70 -452 20 -99 55 -164 131 -241 35 -36 64 -74
64 -85 0 -22 -46 -72 -67 -72 -10 0 -13 -9 -11 -27 l3 -28 365 0 365 0 0 22
c0 14 -13 30 -35 45 -25 17 -36 32 -38 54 -3 26 7 40 63 97 77 79 110 143 123
242 21 156 1 273 -76 440 -31 67 -36 91 -37 150 0 92 32 161 88 188 40 20 46
40 21 75 -13 19 -24 22 -90 22 -69 0 -74 1 -60 16 19 19 21 67 4 82 -7 5 -24
12 -38 14 -27 3 -30 19 -18 98 3 19 18 121 34 227 26 175 30 192 48 195 25 4
35 59 14 75 -20 16 -96 23 -107 9 -15 -18 -17 -52 -3 -68 10 -13 5 -61 -29
-270 l-41 -255 -38 4 c-33 4 -41 1 -55 -21 -21 -32 -12 -62 26 -81 16 -9 29
-18 29 -20 0 -3 -22 -5 -50 -5 l-50 0 0 360 0 359 23 12 c30 16 37 28 37 69 0
22 -7 41 -18 51 -16 13 -17 31 -15 155 1 76 3 221 3 322 0 146 3 182 13 182
23 0 47 35 47 68 0 46 -25 59 -126 60 -72 0 -89 -3 -105 -19z"/>
</g>
</svg>
